<svg version="1.2" xmlns="http://www.w3.org/2000/svg" viewBox="0 0 3000 3000" width="128" height="128"><style>.a{fill:#ba0c2f}.b{opacity:.96;fill:#101010}</style><path class="a" d="m1451 542c-142.6 9-274.3 56.7-382.8 138.7-95.2 71.9-166.8 163.5-207.8 266l-4.9 12.3h-26.7-26.8v-24.4-24.4l5.2-3.2c11.2-6.9 23.5-21.3 29.2-34.2 6.2-14 7.8-34.9 3.7-50.1-4.2-15.8-14.7-31.6-26.5-40.1-15.8-11.3-29.4-15.8-47.6-15.8-21.4 0-37.7 6.9-53.5 22.7-6.7 6.7-10.1 11-13.2 17-12.8 24.6-12.1 52.1 2.1 75.8 5.2 8.8 16.6 20.2 25.1 25.1l6.5 3.9v23.8 23.9h-12.7c-11.3 0-13.4 0.3-17.8 2.4-5.5 2.5-11.9 9-14.1 14.2-1.8 4.3-2 32.8-0.2 38.6 1.5 5 7.8 12.2 13.2 15.1 3.8 2 5.7 2.2 25.7 2.5l21.6 0.3 17.3 36.5c9.5 20.1 17.7 36.7 18.1 37 0.7 0.4 9.8 1.1 16.7 1.3l2.2 0.1v423 423h-21-20.9l-1 3.7c-1.2 4.8-11.1 50.7-11.1 51.6 0 0.4 2.5 0.7 5.6 0.7h5.5l-0.5 5.2c-0.4 2.9-1.8 24-3.1 46.8-1.4 22.8-4.3 69.4-6.5 103.5-2.1 34.1-5.1 81.3-6.5 105-1.4 23.6-2.8 44-3.1 45.2l-0.4 2.3h-26.4-26.3l-22.6 70.7c-12.5 39-22.7 71-22.7 71.3 0 0.3 386.1 0.5 858 0.5 471.9 0 858-0.1 858-0.2 0-0.2-4.3-10.1-9.6-22-5.2-12-11.7-26.8-14.4-32.8-2.6-6.1-8-18.2-11.8-27-3.9-8.8-11.4-25.9-16.6-38l-9.5-22-28.8-0.5c-15.8-0.3-24.2-0.6-18.5-0.8l10.2-0.2-0.5-3.7c-0.3-2.1-1.6-20.9-3-41.8-2.4-35-4.2-61.9-14-203-1.9-27.5-3.6-51.8-3.7-54-0.3-3.7-0.1-4 2.5-4.3 2.1-0.3 2.7-0.8 2.3-2-1-3.7-11.6-53.7-11.6-54.9 0-0.3-8.1-0.3-18 0.1l-18 0.6v-423-423h9.3 9.2l3.7-8.8c2-4.8 6.5-15 9.8-22.7 6.3-14.2 15.1-34.3 17.6-40.3l1.4-3.2h22.4c21 0 22.5-0.1 24.9-2 1.6-1.3 2.9-3.5 3.2-5.8 0.4-2 1.6-5.9 2.7-8.7 1.8-4.2 2.1-7.2 2.1-20 0-13.2-0.3-15.6-2.2-19.9-1.1-2.7-2.1-5.9-2.1-7.3 0-3.2-2.6-8-4.9-9.3-1.1-0.6-9.2-1-19-1h-17.1v-23.3-23.2l5.3-2.9c8.4-4.7 22.5-19.6 27.4-29.2 6.5-12.4 8.7-21.6 8.7-35.9 0-14.5-1.6-21.4-8.1-34.5-4-8.1-6-10.9-14.2-19.1-8.2-8.2-10.9-10.2-19.1-14.1-12.9-6.3-21.8-8.3-35.5-8.1-8.7 0.1-12.9 0.7-20 2.8-29.3 8.6-50.7 33.7-54.6 64.2-2 15.6 1.9 33.9 10.2 47.9 4.8 8.2 15.5 19.1 23.7 24.4l7.1 4.5v23.2l0.1 23.3h-28c-25.8 0-28.1-0.1-28.7-1.8-2.7-8.1-13.3-32.1-20.9-47.7-54.2-111-146.7-208.6-259-273.1-92.2-53-189.6-83-300.4-92.5-16.3-1.4-81.7-2-99-0.9zm73.5 69.4c52.8 1.7 112 12.2 168 29.7 73.7 23.2 146.5 62.5 206.5 111.8 45.5 37.3 84.1 80.1 116.3 129.1 12.7 19.4 23.3 37.9 33.3 58.5l8.3 17-563 0.9c-309.6 0.5-563.3 0.6-563.6 0.2-0.3-0.3 3.1-8 7.5-17.1 34.6-70.6 83.9-133.1 146.2-185.3 100.3-84 231-135.6 365-144.2 25.9-1.7 37.8-1.7 75.5-0.6zm-106.6 458.6l17.7 37.5 9.2 0.3 9.2 0.3v422.9 423l-20.7 0.2-20.7 0.3-1.3 6c-0.6 3.3-3.2 15.4-5.7 26.9-2.6 11.6-4.6 21.3-4.6 21.8 0 0.4 2.3 0.8 5 0.8h5.1l-0.6 6.2c-0.3 3.5-1.9 28.8-3.5 56.3-1.7 27.5-4.1 68.7-5.5 91.5-1.3 22.8-3.9 66.6-5.7 97.2l-3.3 55.8-224.5-0.2c-123.5-0.1-222.1-0.3-219.2-0.5l5.4-0.4-0.6-5.7c-0.3-3.1-2-25.7-3.6-50.2-1.7-24.5-4.6-67-6.5-94.5-8.5-121.2-10.5-150.8-10.5-153.5 0-2.5 0.4-3 2.5-3 1.4 0 2.5-0.2 2.5-0.3 0-0.5-7.6-36.3-10.1-47.6l-2.1-9.3-17.9 0.6-17.9 0.6v-423-423h9.4 9.3l2.1-5.1c1.2-2.8 8.5-19.6 16.3-37.5l14.1-32.4 229.6 0.2 229.5 0.3zm653.2-1c9.5 20.1 17.3 36.6 17.4 36.7 0.1 0.3 11.1 1 16.8 1.2 1.6 0.1 1.7 20.9 1.7 423.1v423l-20.7 0.2-20.8 0.3-5.2 24c-2.9 13.2-5.5 25.7-5.9 27.7l-0.6 3.7 5.3 0.3 5.4 0.3-0.3 3.5c-0.1 1.9-1.3 21.9-2.7 44.5-1.4 22.5-4.1 65.7-6 96-1.9 30.2-4.8 76.6-6.5 103-1.6 26.4-3.2 50.8-3.6 54.2l-0.6 6.3h-219.3-219.4l-0.5-4.2c-0.3-2.4-2.4-31.3-4.6-64.3-2.2-33-5.6-82.3-7.5-109.5-5.6-79.7-8.5-122.9-8.5-126.1 0-2.4 0.4-2.9 2.5-2.9 2.1 0 2.5-0.4 2-2.2-0.3-1.3-2.7-13.1-5.5-26.3-2.8-13.2-5.3-25.1-5.5-26.3l-0.6-2.4-17.9 0.4-18 0.3v-422.8-422.7h9.3 9.2l16.5-38 16.5-38 230.3 0.3 230.2 0.2z"/><path class="b" d="m2174 948l6 2 3 8-5 7-2 22-9 14-2 21-9 14-2 21-9 14 2 11-13 25 2 11-12 23 2 11-13 25 2 11-9 14-2 22-9 14-2 21-9 14 1 12-3 9-9 14 2 13-12 24 2 9-10 17-1 19-9 14-2 22-9 13 1 13-12 23 2 12-12 23 2 11-13 25 2 10-10 17-2 21-9 14 2 10-12 23 2 12-13 25 2 12-9 14-2 21-9 14 2 9-13 26 3 10-7 14-90-40-117-58-27-10-49-26-36-14-38-21-38-15-37-21-29-11-37-20-10 1-18 41-16 48-58 117-29 79-58 117-8 31-12 26 199 95 7 1 12 8 35 14 18 9 1 7-32 12-11 8-11 2-10 8-191 70-175 61-49 14h-10l-7 5-12 1-31 10-8-14-186-523 2-7 11-1 12 8 7 1 12 8 7 1 12 8 7 1 12 8 7 1 12 8 35 14 14 9 134 62 19-44 9-14v-5l13-22 16-52 40-79 16-50 40-80 15-49 49-99 20-59 13-22 24-55 15-6 8 5 20 2 52 26 7 1 38 19 42 27 133 63h5l14 9h5l58 30 23 17 8 1 11 8 45 19 12 8 13 5 13-5 12-26 14-15 16-37 18-22 16-37 13-12 20-46 14-14 19-44 15-15 14-35 19-23 16-38 19-23 14-35 19-23 19-44 9-6 6-9 19-45 13-18 3-10z"/></svg>